<svg width="120" height="120" xmlns="http://www.w3.org/2000/svg" xml:space="preserve" enable-background="new 0 0 100 100" version="1.1">

 <g>
  <title>Layer 1</title>
  <g stroke="null" id="svg_1">
   <path stroke="null" id="svg_2" d="m76.6789,7.35737l-4,0l-26,0l-4,0l-28,0l0,9.10909l0,2.02424l0,8.09697l0,2.02424l0,7.08485l0,4.04848l0,7.08485l0,2.02424l0,8.09697l0,2.02424l0,7.08485l0,4.04848l0,7.08485l0,2.02424l0,8.09697l0,2.02424l0,9.10909l28,0l4,0l26,0l4,0l28,0l0,-9.10909l0,-2.02424l0,-8.09697l0,-2.02424l0,-7.08485l0,-4.04848l0,-7.08485l0,-2.02424l0,-8.09697l0,-2.02424l0,-7.08485l0,-4.04848l0,-7.08485l0,-2.02424l0,-8.09697l0,-2.02424l0,-9.10909l-28,0zm9,79.95757l0,-8.09697l8,0l0,8.09697l-8,0zm8,2.02424l0,7.08485l-8,0l0,-7.08485l8,0zm-38,-2.02424l0,-8.09697l8,0l0,8.09697l-8,0zm8,2.02424l0,7.08485l-8,0l0,-7.08485l8,0zm-38,-2.02424l0,-8.09697l8,0l0,8.09697l-8,0zm8,2.02424l0,7.08485l-8,0l0,-7.08485l8,0zm0,-70.84848l0,8.09697l-8,0l0,-8.09697l8,0zm-8,-2.02424l0,-7.08485l8,0l0,7.08485l-8,0zm38,2.02424l0,8.09697l-8,0l0,-8.09697l8,0zm-8,-2.02424l0,-7.08485l8,0l0,7.08485l-8,0zm0,30.36364l0,-7.08485l8,0l0,7.08485l-8,0zm8,2.02424l0,8.09697l-8,0l0,-8.09697l8,0zm-10,-2.02424l-7,0l0,-7.08485l7,0l0,7.08485zm0,2.02424l0,8.09697l-7,0l0,-8.09697l7,0zm0,10.12121l0,7.08485l-7,0l0,-7.08485l7,0zm2,0l8,0l0,7.08485l-8,0l0,-7.08485zm10,0l7,0l0,7.08485l-7,0l0,-7.08485zm0,-2.02424l0,-8.09697l7,0l0,8.09697l-7,0zm0,-10.12121l0,-7.08485l7,0l0,7.08485l-7,0zm0,-11.13333l0,-7.08485l7,0l0,7.08485l-7,0zm-2,0l-8,0l0,-7.08485l8,0l0,7.08485zm-10,0l-7,0l0,-7.08485l7,0l0,7.08485zm-11,0l-7,0l0,-7.08485l7,0l0,7.08485zm0,4.04848l0,7.08485l-7,0l0,-7.08485l7,0zm0,9.10909l0,8.09697l-7,0l0,-8.09697l7,0zm0,10.12121l0,7.08485l-7,0l0,-7.08485l7,0zm0,11.13333l0,7.08485l-7,0l0,-7.08485l7,0zm4,0l7,0l0,7.08485l-7,0l0,-7.08485zm9,0l8,0l0,7.08485l-8,0l0,-7.08485zm10,0l7,0l0,7.08485l-7,0l0,-7.08485zm11,0l7,0l0,7.08485l-7,0l0,-7.08485zm0,-4.04848l0,-7.08485l7,0l0,7.08485l-7,0zm0,-9.10909l0,-8.09697l7,0l0,8.09697l-7,0zm0,-10.12121l0,-7.08485l7,0l0,7.08485l-7,0zm0,-11.13333l0,-7.08485l7,0l0,7.08485l-7,0zm0,-9.10909l0,-8.09697l7,0l0,8.09697l-7,0zm-4,0l-7,0l0,-8.09697l7,0l0,8.09697zm-19,0l-7,0l0,-8.09697l7,0l0,8.09697zm-11,0l-7,0l0,-8.09697l7,0l0,8.09697zm-9,2.02424l0,7.08485l-8,0l0,-7.08485l8,0zm0,11.13333l0,7.08485l-8,0l0,-7.08485l8,0zm0,9.10909l0,8.09697l-8,0l0,-8.09697l8,0zm0,10.12121l0,7.08485l-8,0l0,-7.08485l8,0zm0,11.13333l0,7.08485l-8,0l0,-7.08485l8,0zm2,9.10909l7,0l0,8.09697l-7,0l0,-8.09697zm11,0l7,0l0,8.09697l-7,0l0,-8.09697zm19,0l7,0l0,8.09697l-7,0l0,-8.09697zm11,0l7,0l0,8.09697l-7,0l0,-8.09697zm9,-2.02424l0,-7.08485l8,0l0,7.08485l-8,0zm0,-11.13333l0,-7.08485l8,0l0,7.08485l-8,0zm0,-9.10909l0,-8.09697l8,0l0,8.09697l-8,0zm0,-10.12121l0,-7.08485l8,0l0,7.08485l-8,0zm0,-11.13333l0,-7.08485l8,0l0,7.08485l-8,0zm0,-9.10909l0,-8.09697l8,0l0,8.09697l-8,0zm0,-10.12121l0,-7.08485l8,0l0,7.08485l-8,0zm-2,-7.08485l0,7.08485l-7,0l0,-7.08485l7,0zm-11,7.08485l-7,0l0,-7.08485l7,0l0,7.08485zm-19,-7.08485l0,7.08485l-7,0l0,-7.08485l7,0zm-11,7.08485l-7,0l0,-7.08485l7,0l0,7.08485zm-26,-7.08485l7,0l0,7.08485l-7,0l0,-7.08485zm0,9.10909l7,0l0,8.09697l-7,0l0,-8.09697zm0,10.12121l7,0l0,7.08485l-7,0l0,-7.08485zm0,11.13333l7,0l0,7.08485l-7,0l0,-7.08485zm0,9.10909l7,0l0,8.09697l-7,0l0,-8.09697zm0,10.12121l7,0l0,7.08485l-7,0l0,-7.08485zm0,11.13333l7,0l0,7.08485l-7,0l0,-7.08485zm0,9.10909l7,0l0,8.09697l-7,0l0,-8.09697zm0,10.12121l7,0l0,7.08485l-7,0l0,-7.08485zm19,7.08485l0,-7.08485l7,0l0,7.08485l-7,0zm11,-7.08485l7,0l0,7.08485l-7,0l0,-7.08485zm19,7.08485l0,-7.08485l7,0l0,7.08485l-7,0zm11,-7.08485l7,0l0,7.08485l-7,0l0,-7.08485zm26,7.08485l-7,0l0,-7.08485l7,0l0,7.08485zm0,-9.10909l-7,0l0,-8.09697l7,0l0,8.09697zm0,-10.12121l-7,0l0,-7.08485l7,0l0,7.08485zm0,-11.13333l-7,0l0,-7.08485l7,0l0,7.08485zm0,-9.10909l-7,0l0,-8.09697l7,0l0,8.09697zm0,-10.12121l-7,0l0,-7.08485l7,0l0,7.08485zm0,-11.13333l-7,0l0,-7.08485l7,0l0,7.08485zm0,-9.10909l-7,0l0,-8.09697l7,0l0,8.09697zm-7,-10.12121l0,-7.08485l7,0l0,7.08485l-7,0z" fill="#000000"/>
  </g>
  <text transform="matrix(1.6645 0 0 2.45382 -25.3046 -143.595)" stroke="null" font-style="normal" font-weight="bold" xml:space="preserve" text-anchor="start" font-family="'Open Sans'" font-size="5px" stroke-width="0" id="svg_5" y="103.7841" x="30.18247" fill="#000000">SUDOKU SOLVER</text>
 </g>
</svg>